<mxfile host="Electron" agent="Mozilla/5.0 (Windows NT 10.0; Win64; x64) AppleWebKit/537.36 (KHTML, like Gecko) draw.io/28.2.5 Chrome/138.0.7204.251 Electron/37.6.1 Safari/537.36" version="28.2.5">
  <diagram name="Page-1" id="RELGrpeWSKPGUUoIklaD">
    <mxGraphModel dx="1940" dy="1850" grid="1" gridSize="10" guides="1" tooltips="1" connect="1" arrows="1" fold="1" page="1" pageScale="1" pageWidth="850" pageHeight="1100" math="0" shadow="0">
      <root>
        <mxCell id="0" />
        <mxCell id="1" parent="0" />
        <mxCell id="JqqLqueLbRyiNwSQFNuu-1" value="College" style="swimlane;fontStyle=0;childLayout=stackLayout;horizontal=1;startSize=26;fillColor=none;horizontalStack=0;resizeParent=1;resizeParentMax=0;resizeLast=0;collapsible=1;marginBottom=0;whiteSpace=wrap;html=1;" parent="1" vertex="1">
          <mxGeometry x="10" y="-10" width="140" height="78" as="geometry" />
        </mxCell>
        <mxCell id="JqqLqueLbRyiNwSQFNuu-2" value="name" style="text;strokeColor=none;fillColor=none;align=left;verticalAlign=top;spacingLeft=4;spacingRight=4;overflow=hidden;rotatable=0;points=[[0,0.5],[1,0.5]];portConstraint=eastwest;whiteSpace=wrap;html=1;" parent="JqqLqueLbRyiNwSQFNuu-1" vertex="1">
          <mxGeometry y="26" width="140" height="26" as="geometry" />
        </mxCell>
        <mxCell id="JqqLqueLbRyiNwSQFNuu-3" value="website" style="text;strokeColor=none;fillColor=none;align=left;verticalAlign=top;spacingLeft=4;spacingRight=4;overflow=hidden;rotatable=0;points=[[0,0.5],[1,0.5]];portConstraint=eastwest;whiteSpace=wrap;html=1;" parent="JqqLqueLbRyiNwSQFNuu-1" vertex="1">
          <mxGeometry y="52" width="140" height="26" as="geometry" />
        </mxCell>
        <mxCell id="JqqLqueLbRyiNwSQFNuu-5" value="" style="endArrow=diamondThin;endFill=1;endSize=24;html=1;rounded=0;entryX=1.007;entryY=0.808;entryDx=0;entryDy=0;entryPerimeter=0;exitX=0;exitY=0.5;exitDx=0;exitDy=0;" parent="1" target="JqqLqueLbRyiNwSQFNuu-2" edge="1" source="JqqLqueLbRyiNwSQFNuu-6">
          <mxGeometry width="160" relative="1" as="geometry">
            <mxPoint x="350" y="69" as="sourcePoint" />
            <mxPoint x="160" y="68.5" as="targetPoint" />
            <Array as="points" />
          </mxGeometry>
        </mxCell>
        <mxCell id="JqqLqueLbRyiNwSQFNuu-6" value="Department" style="swimlane;fontStyle=0;childLayout=stackLayout;horizontal=1;startSize=26;fillColor=none;horizontalStack=0;resizeParent=1;resizeParentMax=0;resizeLast=0;collapsible=1;marginBottom=0;whiteSpace=wrap;html=1;" parent="1" vertex="1">
          <mxGeometry x="230" y="9" width="140" height="52" as="geometry" />
        </mxCell>
        <mxCell id="JqqLqueLbRyiNwSQFNuu-10" value="Teacher" style="swimlane;fontStyle=0;childLayout=stackLayout;horizontal=1;startSize=26;fillColor=none;horizontalStack=0;resizeParent=1;resizeParentMax=0;resizeLast=0;collapsible=1;marginBottom=0;whiteSpace=wrap;html=1;" parent="1" vertex="1">
          <mxGeometry x="235" y="190" width="150" height="46" as="geometry" />
        </mxCell>
        <mxCell id="JqqLqueLbRyiNwSQFNuu-13" value="start_date" style="text;strokeColor=none;fillColor=none;align=left;verticalAlign=top;spacingLeft=4;spacingRight=4;overflow=hidden;rotatable=0;points=[[0,0.5],[1,0.5]];portConstraint=eastwest;whiteSpace=wrap;html=1;" parent="JqqLqueLbRyiNwSQFNuu-10" vertex="1">
          <mxGeometry y="26" width="150" height="20" as="geometry" />
        </mxCell>
        <mxCell id="JqqLqueLbRyiNwSQFNuu-14" value="" style="endArrow=none;html=1;rounded=0;exitX=1;exitY=1;exitDx=0;exitDy=0;entryX=0.9;entryY=0;entryDx=0;entryDy=0;entryPerimeter=0;" parent="1" edge="1" target="JqqLqueLbRyiNwSQFNuu-10" source="JqqLqueLbRyiNwSQFNuu-6">
          <mxGeometry width="50" height="50" relative="1" as="geometry">
            <mxPoint x="340" y="115" as="sourcePoint" />
            <mxPoint x="475" y="160" as="targetPoint" />
          </mxGeometry>
        </mxCell>
        <mxCell id="JqqLqueLbRyiNwSQFNuu-15" value="1..*" style="text;html=1;align=center;verticalAlign=middle;resizable=0;points=[];autosize=1;strokeColor=none;fillColor=none;" parent="1" vertex="1">
          <mxGeometry x="250" y="250" width="40" height="30" as="geometry" />
        </mxCell>
        <mxCell id="JqqLqueLbRyiNwSQFNuu-28" value="Subject" style="swimlane;fontStyle=0;childLayout=stackLayout;horizontal=1;startSize=26;fillColor=none;horizontalStack=0;resizeParent=1;resizeParentMax=0;resizeLast=0;collapsible=1;marginBottom=0;whiteSpace=wrap;html=1;" parent="1" vertex="1">
          <mxGeometry x="270" y="342" width="140" height="52" as="geometry" />
        </mxCell>
        <mxCell id="JqqLqueLbRyiNwSQFNuu-33" value="" style="endArrow=none;html=1;rounded=0;entryX=0.221;entryY=1.1;entryDx=0;entryDy=0;entryPerimeter=0;exitX=0.042;exitY=0.933;exitDx=0;exitDy=0;exitPerimeter=0;" parent="1" source="JqqLqueLbRyiNwSQFNuu-34" target="JqqLqueLbRyiNwSQFNuu-13" edge="1">
          <mxGeometry width="50" height="50" relative="1" as="geometry">
            <mxPoint x="268" y="340" as="sourcePoint" />
            <mxPoint x="640" y="170" as="targetPoint" />
          </mxGeometry>
        </mxCell>
        <mxCell id="JqqLqueLbRyiNwSQFNuu-34" value="1" style="text;html=1;align=center;verticalAlign=middle;resizable=0;points=[];autosize=1;strokeColor=none;fillColor=none;" parent="1" vertex="1">
          <mxGeometry x="345" y="312" width="30" height="30" as="geometry" />
        </mxCell>
        <mxCell id="JqqLqueLbRyiNwSQFNuu-35" value="Student" style="swimlane;fontStyle=0;childLayout=stackLayout;horizontal=1;startSize=26;fillColor=none;horizontalStack=0;resizeParent=1;resizeParentMax=0;resizeLast=0;collapsible=1;marginBottom=0;whiteSpace=wrap;html=1;" parent="1" vertex="1">
          <mxGeometry x="-160" y="290" width="140" height="52" as="geometry" />
        </mxCell>
        <mxCell id="JqqLqueLbRyiNwSQFNuu-38" value="start_year" style="text;strokeColor=none;fillColor=none;align=left;verticalAlign=top;spacingLeft=4;spacingRight=4;overflow=hidden;rotatable=0;points=[[0,0.5],[1,0.5]];portConstraint=eastwest;whiteSpace=wrap;html=1;" parent="JqqLqueLbRyiNwSQFNuu-35" vertex="1">
          <mxGeometry y="26" width="140" height="26" as="geometry" />
        </mxCell>
        <mxCell id="JqqLqueLbRyiNwSQFNuu-39" value="" style="endArrow=none;html=1;rounded=0;entryX=0.429;entryY=1;entryDx=0;entryDy=0;entryPerimeter=0;exitX=0;exitY=0.5;exitDx=0;exitDy=0;" parent="1" source="JqqLqueLbRyiNwSQFNuu-28" edge="1">
          <mxGeometry width="50" height="50" relative="1" as="geometry">
            <mxPoint x="204.01999999999953" y="350.00800000000027" as="sourcePoint" />
            <mxPoint x="-104.94000000000005" y="342" as="targetPoint" />
          </mxGeometry>
        </mxCell>
        <mxCell id="JqqLqueLbRyiNwSQFNuu-41" value="Grade" style="swimlane;fontStyle=0;childLayout=stackLayout;horizontal=1;startSize=26;fillColor=none;horizontalStack=0;resizeParent=1;resizeParentMax=0;resizeLast=0;collapsible=1;marginBottom=0;whiteSpace=wrap;html=1;" parent="1" vertex="1">
          <mxGeometry x="30" y="354" width="75" height="46" as="geometry" />
        </mxCell>
        <mxCell id="JqqLqueLbRyiNwSQFNuu-45" value="1..*" style="text;html=1;align=center;verticalAlign=middle;resizable=0;points=[];autosize=1;strokeColor=none;fillColor=none;" parent="1" vertex="1">
          <mxGeometry x="225" y="362" width="40" height="30" as="geometry" />
        </mxCell>
        <mxCell id="JqqLqueLbRyiNwSQFNuu-48" value="1..*" style="text;html=1;align=center;verticalAlign=middle;resizable=0;points=[];autosize=1;strokeColor=none;fillColor=none;" parent="1" vertex="1">
          <mxGeometry x="360" y="160" width="40" height="30" as="geometry" />
        </mxCell>
        <mxCell id="JqqLqueLbRyiNwSQFNuu-49" value="Classroom" style="swimlane;fontStyle=0;childLayout=stackLayout;horizontal=1;startSize=26;fillColor=none;horizontalStack=0;resizeParent=1;resizeParentMax=0;resizeLast=0;collapsible=1;marginBottom=0;whiteSpace=wrap;html=1;" parent="1" vertex="1">
          <mxGeometry x="235" y="510" width="140" height="52" as="geometry" />
        </mxCell>
        <mxCell id="JqqLqueLbRyiNwSQFNuu-50" value="capacity" style="text;strokeColor=none;fillColor=none;align=left;verticalAlign=top;spacingLeft=4;spacingRight=4;overflow=hidden;rotatable=0;points=[[0,0.5],[1,0.5]];portConstraint=eastwest;whiteSpace=wrap;html=1;" parent="JqqLqueLbRyiNwSQFNuu-49" vertex="1">
          <mxGeometry y="26" width="140" height="26" as="geometry" />
        </mxCell>
        <mxCell id="JqqLqueLbRyiNwSQFNuu-53" value="" style="endArrow=none;html=1;rounded=0;entryX=0.457;entryY=0.923;entryDx=0;entryDy=0;entryPerimeter=0;exitX=0.321;exitY=0.038;exitDx=0;exitDy=0;exitPerimeter=0;" parent="1" edge="1" source="JqqLqueLbRyiNwSQFNuu-49">
          <mxGeometry width="50" height="50" relative="1" as="geometry">
            <mxPoint x="280.51" y="492" as="sourcePoint" />
            <mxPoint x="279.49" y="393.99800000000005" as="targetPoint" />
          </mxGeometry>
        </mxCell>
        <mxCell id="JqqLqueLbRyiNwSQFNuu-54" value="1" style="text;html=1;align=center;verticalAlign=middle;resizable=0;points=[];autosize=1;strokeColor=none;fillColor=none;" parent="1" vertex="1">
          <mxGeometry x="270" y="480" width="30" height="30" as="geometry" />
        </mxCell>
        <mxCell id="JqqLqueLbRyiNwSQFNuu-62" value="Person" style="swimlane;fontStyle=0;childLayout=stackLayout;horizontal=1;startSize=26;fillColor=none;horizontalStack=0;resizeParent=1;resizeParentMax=0;resizeLast=0;collapsible=1;marginBottom=0;whiteSpace=wrap;html=1;" parent="1" vertex="1">
          <mxGeometry x="-170" y="80" width="140" height="156" as="geometry" />
        </mxCell>
        <mxCell id="JqqLqueLbRyiNwSQFNuu-64" value="Last_name" style="text;strokeColor=none;fillColor=none;align=left;verticalAlign=top;spacingLeft=4;spacingRight=4;overflow=hidden;rotatable=0;points=[[0,0.5],[1,0.5]];portConstraint=eastwest;whiteSpace=wrap;html=1;" parent="JqqLqueLbRyiNwSQFNuu-62" vertex="1">
          <mxGeometry y="26" width="140" height="26" as="geometry" />
        </mxCell>
        <mxCell id="JqqLqueLbRyiNwSQFNuu-63" value="First_name" style="text;strokeColor=none;fillColor=none;align=left;verticalAlign=top;spacingLeft=4;spacingRight=4;overflow=hidden;rotatable=0;points=[[0,0.5],[1,0.5]];portConstraint=eastwest;whiteSpace=wrap;html=1;" parent="JqqLqueLbRyiNwSQFNuu-62" vertex="1">
          <mxGeometry y="52" width="140" height="26" as="geometry" />
        </mxCell>
        <mxCell id="JqqLqueLbRyiNwSQFNuu-65" value="Phone_number" style="text;strokeColor=none;fillColor=none;align=left;verticalAlign=top;spacingLeft=4;spacingRight=4;overflow=hidden;rotatable=0;points=[[0,0.5],[1,0.5]];portConstraint=eastwest;whiteSpace=wrap;html=1;" parent="JqqLqueLbRyiNwSQFNuu-62" vertex="1">
          <mxGeometry y="78" width="140" height="26" as="geometry" />
        </mxCell>
        <mxCell id="JqqLqueLbRyiNwSQFNuu-66" value="Email&lt;div&gt;&lt;br&gt;&lt;/div&gt;" style="text;strokeColor=none;fillColor=none;align=left;verticalAlign=top;spacingLeft=4;spacingRight=4;overflow=hidden;rotatable=0;points=[[0,0.5],[1,0.5]];portConstraint=eastwest;whiteSpace=wrap;html=1;" parent="JqqLqueLbRyiNwSQFNuu-62" vertex="1">
          <mxGeometry y="104" width="140" height="26" as="geometry" />
        </mxCell>
        <mxCell id="9Q2zQEFHd-dDwdoOLKhc-1" value="&lt;div&gt;&lt;span style=&quot;text-align: center;&quot;&gt;Personal_Record ( )&lt;/span&gt;&lt;/div&gt;" style="text;strokeColor=none;fillColor=none;align=left;verticalAlign=top;spacingLeft=4;spacingRight=4;overflow=hidden;rotatable=0;points=[[0,0.5],[1,0.5]];portConstraint=eastwest;whiteSpace=wrap;html=1;" vertex="1" parent="JqqLqueLbRyiNwSQFNuu-62">
          <mxGeometry y="130" width="140" height="26" as="geometry" />
        </mxCell>
        <mxCell id="JqqLqueLbRyiNwSQFNuu-68" value="" style="endArrow=classic;html=1;rounded=0;entryX=0.6;entryY=1.077;entryDx=0;entryDy=0;entryPerimeter=0;exitX=0.5;exitY=0;exitDx=0;exitDy=0;" parent="1" target="9Q2zQEFHd-dDwdoOLKhc-1" edge="1" source="JqqLqueLbRyiNwSQFNuu-35">
          <mxGeometry width="50" height="50" relative="1" as="geometry">
            <mxPoint x="-120" y="210" as="sourcePoint" />
            <mxPoint x="-70" y="160" as="targetPoint" />
            <Array as="points" />
          </mxGeometry>
        </mxCell>
        <mxCell id="JqqLqueLbRyiNwSQFNuu-69" value="" style="endArrow=classic;html=1;rounded=0;entryX=1;entryY=0.5;entryDx=0;entryDy=0;exitX=0;exitY=0.5;exitDx=0;exitDy=0;" parent="1" source="JqqLqueLbRyiNwSQFNuu-13" target="9Q2zQEFHd-dDwdoOLKhc-1" edge="1">
          <mxGeometry width="50" height="50" relative="1" as="geometry">
            <mxPoint x="37" y="208" as="sourcePoint" />
            <mxPoint x="10" y="170" as="targetPoint" />
          </mxGeometry>
        </mxCell>
        <mxCell id="JqqLqueLbRyiNwSQFNuu-74" value="" style="endArrow=none;html=1;rounded=0;entryX=0.089;entryY=0.034;entryDx=0;entryDy=0;entryPerimeter=0;" parent="1" target="JqqLqueLbRyiNwSQFNuu-10" edge="1">
          <mxGeometry width="50" height="50" relative="1" as="geometry">
            <mxPoint x="248" y="60" as="sourcePoint" />
            <mxPoint x="545" y="-20" as="targetPoint" />
          </mxGeometry>
        </mxCell>
        <mxCell id="JqqLqueLbRyiNwSQFNuu-75" value="1" style="text;html=1;align=center;verticalAlign=middle;resizable=0;points=[];autosize=1;strokeColor=none;fillColor=none;" parent="1" vertex="1">
          <mxGeometry x="230" y="160" width="30" height="30" as="geometry" />
        </mxCell>
        <mxCell id="JqqLqueLbRyiNwSQFNuu-76" value="head" style="text;html=1;align=center;verticalAlign=middle;resizable=0;points=[];autosize=1;strokeColor=none;fillColor=none;" parent="1" vertex="1">
          <mxGeometry x="220" y="108" width="50" height="30" as="geometry" />
        </mxCell>
        <mxCell id="JqqLqueLbRyiNwSQFNuu-77" value="teacher" style="text;html=1;align=center;verticalAlign=middle;resizable=0;points=[];autosize=1;strokeColor=none;fillColor=none;" parent="1" vertex="1">
          <mxGeometry x="370" y="108" width="60" height="30" as="geometry" />
        </mxCell>
      </root>
    </mxGraphModel>
  </diagram>
</mxfile>
